{"title":"Beyond Scared Straight S09E06 HDTV x264-TASTETV","uid":12176828,"size":302961275,"categoryP":"video","categoryS":"tv_shows","magnet":"?xt=urn:btih:d14ffc4002519a08cc659cafaede546162c7ed18&amp;dn=Beyond+Scared+Straight+S09E06+HDTV+x264-TASTETV&amp;tr=udp%3A%2F%2Ftracker.openbittorrent.com%3A80&amp;tr=udp%3A%2F%2Fopen.demonii.com%3A1337&amp;tr=udp%3A%2F%2Ftracker.coppersurfer.tk%3A6969&amp;tr=udp%3A%2F%2Fexodus.desync.com%3A6969","seeders":2,"leechers":0,"uploader":"Mulva1989","files":2,"time":1438330248,"description":"Beyond Scared Straight S09E06 HDTV x264-TASTETV\n\nA four-time runaway finds an unlikely ally after being introduced to life in Georgia's Douglas County Jail.\n\nScreens @ &lt;a href=&quot;\nhttps://yuq.me/users/50/321/umrsny2Ewg.jpg&quot; rel=&quot;nofollow&quot; target=&quot;_NEW&quot;&gt;\nhttps://yuq.me/users/50/321/umrsny2Ewg.jpg&lt;/a&gt; &lt;a href=&quot;\nhttps://yuq.me/users/50/321/6s5PhQHNXA.jpg&quot; rel=&quot;nofollow&quot; target=&quot;_NEW&quot;&gt;\nhttps://yuq.me/users/50/321/6s5PhQHNXA.jpg&lt;/a&gt;\n\nFormat : MPEG-4\nFormat profile : Base Media\nCodec ID : isom\nFile size : 289 MiB\nDuration : 42mn 55s\nOverall bit rate mode : Variable\nOverall bit rate : 941 Kbps\nEncoded date : UTC 2015-07-31 04:03:53\nTagged date : UTC 2015-07-31 04:03:53\n\nVideo\nID : 1\nFormat : AVC\nFormat/Info : Advanced Video Codec\nFormat profile : &lt;a class=&quot;__cf_email__&quot; href=&quot;/cdn-cgi/l/email-protection&quot; data-cfemail=&quot;0f476668674f433c213e&quot;&gt;[email&amp;#160;protected]&lt;/a&gt;&lt;script data-cfhash='f9e31' type=&quot;text/javascript&quot;&gt;\n/* &lt;![CDATA[ */!function(){try{var t=&quot;currentScript&quot;in document?document.currentScript:function(){for(var t=document.getElementsByTagName(&quot;script&quot;),e=t.length;e--;)if(t[e].getAttribute(&quot;data-cfhash&quot;))return t[e]}();if(t&amp;&amp;t.previousSibling){var e,r,n,i,c=t.previousSibling,a=c.getAttribute(&quot;data-cfemail&quot;);if(a){for(e=&quot;&quot;,r=parseInt(a.substr(0,2),16),n=2;a.length-n;n+=2)i=parseInt(a.substr(n,2),16)^r,e+=String.fromCharCode(i);e=document.createTextNode(e),c.parentNode.replaceChild(e,c)}t.parentNode.removeChild(t);}}catch(u){}}()/* ]]&gt; */&lt;/script&gt;\nFormat settings, CABAC : Yes\nFormat settings, ReFrames : 5 frames\nCodec ID : avc1\nCodec ID/Info : Advanced Video Coding\nDuration : 42mn 55s\nBit rate : 813 Kbps\nMaximum bit rate : 2 438 Kbps\nWidth : 720 pixels\nHeight : 404 pixels\nDisplay aspect ratio : 16:9\nFrame rate mode : Constant\nFrame rate : 23.976 fps\nColor space : YUV\nChroma subsampling : 4:2:0\nBit depth : 8 bits\nScan type : Progressive\nBits/(Pixel*Frame) : 0.117\nStream size : 250 MiB (86%)\nWriting library : x264 core 146 r2538 121396c\nEncoding settings : cabac=1 / ref=5 / deblock=1:0:0 / analyse=0x3:0x113 / me=umh / subme=8 / psy=1 / psy_rd=1.00:0.00 / mixed_ref=1 / me_range=16 / chroma_me=1 / trellis=1 / 8x8dct=1 / cqm=0 / deadzone=21,11 / fast_pskip=1 / chroma_qp_offset=-2 / threads=12 / lookahead_threads=2 / sliced_threads=0 / nr=0 / decimate=1 / interlaced=0 / bluray_compat=0 / constrained_intra=0 / bframes=3 / b_pyramid=2 / b_adapt=2 / b_bias=0 / direct=3 / weightb=1 / open_gop=0 / weightp=2 / keyint=240 / keyint_min=23 / scenecut=40 / intra_refresh=0 / rc_lookahead=50 / rc=crf / mbtree=1 / crf=22.0 / qcomp=0.60 / qpmin=0 / qpmax=69 / qpstep=4 / ip_ratio=1.40 / aq=1:1.00\nEncoded date : UTC 2015-07-31 03:56:13\nTagged date : UTC 2015-07-31 04:03:54\nMatrix coefficients : BT.709\nColor range : Limited\n\nAudio\nID : 2\nFormat : AAC\nFormat/Info : Advanced Audio Codec\nFormat profile : LC\nCodec ID : 40\nDuration : 42mn 55s\nBit rate mode : Variable\nBit rate : 124 Kbps\nMaximum bit rate : 136 Kbps\nChannel(s) : 2 channels\nChannel positions : Front: L R\nSampling rate : 48.0 KHz\nCompression mode : Lossy\nStream size : 38.1 MiB (13%)\nEncoded date : UTC 2015-07-31 03:56:17\nTagged date : UTC 2015-07-31 04:03:54","torrent":{"xt":"urn:btih:d14ffc4002519a08cc659cafaede546162c7ed18","amp;dn":"Beyond+Scared+Straight+S09E06+HDTV+x264-TASTETV","amp;tr":["udp%3A%2F%2Ftracker.openbittorrent.com%3A80","udp%3A%2F%2Fopen.demonii.com%3A1337","udp%3A%2F%2Ftracker.coppersurfer.tk%3A6969","udp%3A%2F%2Fexodus.desync.com%3A6969"],"infoHash":"d14ffc4002519a08cc659cafaede546162c7ed18","infoHashBuffer":{"type":"Buffer","data":[209,79,252,64,2,81,154,8,204,101,156,175,174,222,84,97,98,199,237,24]},"announce":[],"urlList":[]}}